FFmpeg version SVN-r25716, Copyright (c) 2000-2010 the FFmpeg developers  built on Nov 10 2010 12:23:18 with gcc 4.1.2 20080704 (Red Hat 4.1.2-48)  configuration: --enable-libmp3lame --enable-shared --disable-mmx --arch=x86_64  libavutil     50.33. 0 / 50.33. 0  libavcore      0.12. 1 /  0.12. 1  libavcodec    52.94. 4 / 52.94. 4  libavformat   52.84. 0 / 52.84. 0  libavdevice   52. 2. 2 / 52. 2. 2  libavfilter    1.59. 0 /  1.59. 0  libswscale     0.12. 0 /  0.12. 0Seems stream 0 codec frame rate differs from container frame rate: 1000.00 (1000/1) -> 10.00 (10/1)Input #0, mov,mp4,m4a,3gp,3g2,mj2, from '/RAID10/data/converted_video_files/40983.mov':  Metadata:    major_brand     : qt      minor_version   : 537199360    compatible_brands: qt    Duration: 00:00:15.00, start: 0.000000, bitrate: 6085 kb/s    Stream #0.0(eng): Video: mpeg4, yuv420p, 603x503 [PAR 1:1 DAR 603:503], 6084 kb/s, 10 fps, 10 tbr, 600 tbn, 1k tbc[buffer @ 0x9adaa0] w:603 h:503 pixfmt:yuv420pOutput #0, flv, to '/RAID10/data/converted_video_files/40983.flv':  Metadata:    encoder         : Lavf52.84.0    Stream #0.0(eng): Video: flv, yuv420p, 603x503 [PAR 1:1 DAR 603:503], q=2-31, 600 kb/s, 1k tbn, 24 tbcStream mapping:  Stream #0.0 -> #0.0Press [q] to stop encodingframe=   25 fps=  0 q=24.8 size=    1006kB time=2.46 bitrate=3352.4kbits/s    frame=   56 fps= 54 q=31.0 size=    1318kB time=5.54 bitrate=1949.1kbits/s    frame=   79 fps= 50 q=31.0 size=    1566kB time=7.83 bitrate=1637.7kbits/s    frame=  111 fps= 53 q=31.0 size=    1904kB time=11.04 bitrate=1412.6kbits/s    frame=  142 fps= 55 q=31.0 size=    2200kB time=14.12 bitrate=1275.7kbits/s    frame=  150 fps= 54 q=31.0 Lsize=    2283kB time=14.96 bitrate=1250.0kbits/s    video:2280kB audio:0kB global headers:0kB muxing overhead 0.111793%